<svg width="547px" height="582px"
 viewBox="0.00 0.00 547.00 582.00" xmlns="http://www.w3.org/2000/svg" xmlns:xlink="http://www.w3.org/1999/xlink"><g id="graph0" class="graph" transform=" rotate(0) translate(4 578)">
<title>ビジネスルール関連図</title>
<polygon fill="white" stroke="none" points="-4,4 -4,-578 543,-578 543,4 -4,4"/>
<text text-anchor="middle" x="269.5" y="-7.8" font-family="Times New Roman,serif" font-size="14.00">ビジネスルール関連図</text>
<g id="clust1" class="cluster"><title>cluster_example.domain.model.kit</title>
<polygon fill="lemonchiffon" stroke="#eedd82" stroke-width="2" points="8,-415 8,-566 144,-566 144,-415 8,-415"/>
<text text-anchor="middle" x="76" y="-550.8" font-family="Times New Roman,serif" font-size="14.00">kit</text>
</g>
<g id="clust2" class="cluster"><title>cluster_example.domain.model.kit.feature</title>
<polygon fill="lemonchiffon" stroke="#eedd82" stroke-width="2" points="139,-179 139,-330 219,-330 219,-179 139,-179"/>
<text text-anchor="middle" x="179" y="-314.8" font-family="Times New Roman,serif" font-size="14.00">kit.feature</text>
</g>
<g id="clust4" class="cluster"><title>cluster_example.domain.model.kit.row.validation</title>
<polygon fill="lemonchiffon" stroke="#eedd82" stroke-width="2" points="211,-489 211,-566 471,-566 471,-489 211,-489"/>
<text text-anchor="middle" x="341" y="-550.8" font-family="Times New Roman,serif" font-size="14.00">kit.row.validation</text>
</g>
<g id="clust5" class="cluster"><title>cluster_example.domain.model.kit.specification</title>
<polygon fill="lemonchiffon" stroke="#eedd82" stroke-width="2" points="21,-253 21,-407 131,-407 131,-253 21,-253"/>
<text text-anchor="middle" x="76" y="-391.8" font-family="Times New Roman,serif" font-size="14.00">kit.specification</text>
</g>
<g id="clust3" class="cluster"><title>cluster_example.domain.model.kit.row</title>
<polygon fill="lemonchiffon" stroke="#eedd82" stroke-width="2" points="245,-31 245,-330 355,-330 355,-31 245,-31"/>
<text text-anchor="middle" x="300" y="-314.8" font-family="Times New Roman,serif" font-size="14.00">kit.row</text>
</g>
<g id="clust6" class="cluster"><title>cluster_example.domain.type</title>
<polygon fill="lemonchiffon" stroke="#eedd82" stroke-width="2" points="363,-253 363,-330 531,-330 531,-253 363,-253"/>
<text text-anchor="middle" x="447" y="-314.8" font-family="Times New Roman,serif" font-size="14.00">example.domain.type</text>
</g>
<!-- example.domain.model.kit.StarterKit -->
<g id="node1" class="node"><title>example.domain.model.kit.StarterKit</title>
<polygon fill="#eedd82" stroke="black" points="135.5,-461 16.5,-461 16.5,-423 135.5,-423 135.5,-461"/>
<text text-anchor="middle" x="76" y="-445.8" font-family="Times New Roman,serif" font-size="14.00">ハーブ栽培キット</text>
<text text-anchor="middle" x="76" y="-430.8" font-family="Times New Roman,serif" font-size="14.00">StarterKit</text>
</g>
<!-- example.domain.model.kit.specification.Specification -->
<g id="node12" class="node"><title>example.domain.model.kit.specification.Specification</title>
<polygon fill="#eedd82" stroke="black" points="122.5,-376 29.5,-376 29.5,-338 122.5,-338 122.5,-376"/>
<text text-anchor="middle" x="76" y="-360.8" font-family="Times New Roman,serif" font-size="14.00">キットの仕様</text>
<text text-anchor="middle" x="76" y="-345.8" font-family="Times New Roman,serif" font-size="14.00">Specification</text>
</g>
<!-- example.domain.model.kit.StarterKit&#45;&gt;example.domain.model.kit.specification.Specification -->
<g id="edge11" class="edge"><title>example.domain.model.kit.StarterKit&#45;&gt;example.domain.model.kit.specification.Specification</title>
<path fill="none" stroke="black" d="M76,-422.99C76,-412.296 76,-398.499 76,-386.371"/>
<polygon fill="black" stroke="black" points="79.5001,-386.261 76,-376.261 72.5001,-386.261 79.5001,-386.261"/>
</g>
<!-- example.domain.model.kit.StarterKitList -->
<g id="node2" class="node"><title>example.domain.model.kit.StarterKitList</title>
<polygon fill="#eedd82" stroke="black" points="129,-535 23,-535 23,-497 129,-497 129,-535"/>
<text text-anchor="middle" x="76" y="-519.8" font-family="Times New Roman,serif" font-size="14.00">栽培キット一覧</text>
<text text-anchor="middle" x="76" y="-504.8" font-family="Times New Roman,serif" font-size="14.00">StarterKitList</text>
</g>
<!-- example.domain.model.kit.StarterKitList&#45;&gt;example.domain.model.kit.StarterKit -->
<g id="edge12" class="edge"><title>example.domain.model.kit.StarterKitList&#45;&gt;example.domain.model.kit.StarterKit</title>
<path fill="none" stroke="black" d="M76,-496.831C76,-489.131 76,-479.974 76,-471.417"/>
<polygon fill="black" stroke="black" points="79.5001,-471.413 76,-461.413 72.5001,-471.413 79.5001,-471.413"/>
</g>
<!-- example.domain.model.kit.feature.Feature -->
<g id="node3" class="node"><title>example.domain.model.kit.feature.Feature</title>
<polygon fill="#eedd82" stroke="black" points="208,-225 150,-225 150,-187 208,-187 208,-225"/>
<text text-anchor="middle" x="179" y="-209.8" font-family="Times New Roman,serif" font-size="14.00">特徴</text>
<text text-anchor="middle" x="179" y="-194.8" font-family="Times New Roman,serif" font-size="14.00">Feature</text>
</g>
<!-- example.domain.model.kit.feature.Features -->
<g id="node4" class="node"><title>example.domain.model.kit.feature.Features</title>
<polygon fill="#eedd82" stroke="black" points="211,-299 147,-299 147,-261 211,-261 211,-299"/>
<text text-anchor="middle" x="179" y="-283.8" font-family="Times New Roman,serif" font-size="14.00">特徴</text>
<text text-anchor="middle" x="179" y="-268.8" font-family="Times New Roman,serif" font-size="14.00">Features</text>
</g>
<!-- example.domain.model.kit.feature.Features&#45;&gt;example.domain.model.kit.feature.Feature -->
<g id="edge1" class="edge"><title>example.domain.model.kit.feature.Features&#45;&gt;example.domain.model.kit.feature.Feature</title>
<path fill="none" stroke="black" d="M179,-260.831C179,-253.131 179,-243.974 179,-235.417"/>
<polygon fill="black" stroke="black" points="182.5,-235.413 179,-225.413 175.5,-235.413 182.5,-235.413"/>
</g>
<!-- example.domain.model.kit.row.Row -->
<g id="node5" class="node"><title>example.domain.model.kit.row.Row</title>
<polygon fill="#eedd82" stroke="black" points="327,-225 273,-225 273,-187 327,-187 327,-225"/>
<text text-anchor="middle" x="300" y="-209.8" font-family="Times New Roman,serif" font-size="14.00">列</text>
<text text-anchor="middle" x="300" y="-194.8" font-family="Times New Roman,serif" font-size="14.00">Row</text>
</g>
<!-- example.domain.model.kit.row.Variety -->
<g id="node7" class="node"><title>example.domain.model.kit.row.Variety</title>
<polygon fill="#eedd82" stroke="black" points="346.5,-151 253.5,-151 253.5,-113 346.5,-113 346.5,-151"/>
<text text-anchor="middle" x="300" y="-135.8" font-family="Times New Roman,serif" font-size="14.00">ハーブの品種</text>
<text text-anchor="middle" x="300" y="-120.8" font-family="Times New Roman,serif" font-size="14.00">Variety</text>
</g>
<!-- example.domain.model.kit.row.Row&#45;&gt;example.domain.model.kit.row.Variety -->
<g id="edge2" class="edge"><title>example.domain.model.kit.row.Row&#45;&gt;example.domain.model.kit.row.Variety</title>
<path fill="none" stroke="black" d="M300,-186.831C300,-179.131 300,-169.974 300,-161.417"/>
<polygon fill="black" stroke="black" points="303.5,-161.413 300,-151.413 296.5,-161.413 303.5,-161.413"/>
</g>
<!-- example.domain.model.kit.row.Rows -->
<g id="node6" class="node"><title>example.domain.model.kit.row.Rows</title>
<polygon fill="#eedd82" stroke="black" points="347,-299 267,-299 267,-261 347,-261 347,-299"/>
<text text-anchor="middle" x="307" y="-283.8" font-family="Times New Roman,serif" font-size="14.00">すべての列</text>
<text text-anchor="middle" x="307" y="-268.8" font-family="Times New Roman,serif" font-size="14.00">Rows</text>
</g>
<!-- example.domain.model.kit.row.Rows&#45;&gt;example.domain.model.kit.row.Row -->
<g id="edge3" class="edge"><title>example.domain.model.kit.row.Rows&#45;&gt;example.domain.model.kit.row.Row</title>
<path fill="none" stroke="black" d="M305.234,-260.831C304.485,-253.131 303.595,-243.974 302.763,-235.417"/>
<polygon fill="black" stroke="black" points="306.242,-235.028 301.79,-225.413 299.274,-235.705 306.242,-235.028"/>
</g>
<!-- example.domain.model.kit.row.VarietyName -->
<g id="node8" class="node"><title>example.domain.model.kit.row.VarietyName</title>
<polygon fill="#eedd82" stroke="black" points="344.5,-77 255.5,-77 255.5,-39 344.5,-39 344.5,-77"/>
<text text-anchor="middle" x="300" y="-61.8" font-family="Times New Roman,serif" font-size="14.00">品種名</text>
<text text-anchor="middle" x="300" y="-46.8" font-family="Times New Roman,serif" font-size="14.00">VarietyName</text>
</g>
<!-- example.domain.model.kit.row.Variety&#45;&gt;example.domain.model.kit.row.VarietyName -->
<g id="edge4" class="edge"><title>example.domain.model.kit.row.Variety&#45;&gt;example.domain.model.kit.row.VarietyName</title>
<path fill="none" stroke="black" d="M300,-112.831C300,-105.131 300,-95.9743 300,-87.4166"/>
<polygon fill="black" stroke="black" points="303.5,-87.4132 300,-77.4133 296.5,-87.4133 303.5,-87.4132"/>
</g>
<!-- example.domain.model.kit.row.validation.AddRow -->
<g id="node9" class="node"><title>example.domain.model.kit.row.validation.AddRow</title>
<polygon fill="#eedd82" stroke="black" points="463,-535 357,-535 357,-497 463,-497 463,-535"/>
<text text-anchor="middle" x="410" y="-519.8" font-family="Times New Roman,serif" font-size="14.00">列の追加の制約</text>
<text text-anchor="middle" x="410" y="-504.8" font-family="Times New Roman,serif" font-size="14.00">AddRow</text>
</g>
<!-- example.domain.model.kit.row.validation.RemoveRow -->
<g id="node10" class="node"><title>example.domain.model.kit.row.validation.RemoveRow</title>
<polygon fill="#eedd82" stroke="black" points="338.5,-535 219.5,-535 219.5,-497 338.5,-497 338.5,-535"/>
<text text-anchor="middle" x="279" y="-519.8" font-family="Times New Roman,serif" font-size="14.00">　列の削除の制約</text>
<text text-anchor="middle" x="279" y="-504.8" font-family="Times New Roman,serif" font-size="14.00">RemoveRow</text>
</g>
<!-- example.domain.model.kit.specification.DateOfSeed -->
<g id="node11" class="node"><title>example.domain.model.kit.specification.DateOfSeed</title>
<polygon fill="#eedd82" stroke="black" points="122.5,-299 29.5,-299 29.5,-261 122.5,-261 122.5,-299"/>
<text text-anchor="middle" x="76" y="-283.8" font-family="Times New Roman,serif" font-size="14.00">種をまいた日</text>
<text text-anchor="middle" x="76" y="-268.8" font-family="Times New Roman,serif" font-size="14.00">DateOfSeed</text>
</g>
<!-- example.domain.model.kit.specification.Specification&#45;&gt;example.domain.model.kit.feature.Features -->
<g id="edge5" class="edge"><title>example.domain.model.kit.specification.Specification&#45;&gt;example.domain.model.kit.feature.Features</title>
<path fill="none" stroke="black" d="M122.165,-337.986C126.652,-335.555 131.012,-332.89 135,-330 143.888,-323.559 152.297,-315.059 159.337,-306.948"/>
<polygon fill="black" stroke="black" points="162.192,-308.989 165.888,-299.059 156.807,-304.517 162.192,-308.989"/>
</g>
<!-- example.domain.model.kit.specification.Specification&#45;&gt;example.domain.model.kit.row.Row -->
<g id="edge6" class="edge"><title>example.domain.model.kit.specification.Specification&#45;&gt;example.domain.model.kit.row.Row</title>
<path fill="none" stroke="black" d="M122.837,-352.445C159.811,-348.791 207.64,-341.912 223,-330 252.706,-306.963 237.295,-284.376 258,-253 262.607,-246.019 268.264,-239.057 273.916,-232.741"/>
<polygon fill="black" stroke="black" points="276.745,-234.838 280.993,-225.132 271.619,-230.07 276.745,-234.838"/>
</g>
<!-- example.domain.model.kit.specification.Specification&#45;&gt;example.domain.model.kit.row.Rows -->
<g id="edge7" class="edge"><title>example.domain.model.kit.specification.Specification&#45;&gt;example.domain.model.kit.row.Rows</title>
<path fill="none" stroke="black" d="M122.866,-356.467C159.84,-355.143 211.859,-349.437 253,-330 264.804,-324.423 275.861,-315.388 284.857,-306.586"/>
<polygon fill="black" stroke="black" points="287.448,-308.942 291.9,-299.328 282.424,-304.067 287.448,-308.942"/>
</g>
<!-- example.domain.model.kit.specification.Specification&#45;&gt;example.domain.model.kit.specification.DateOfSeed -->
<g id="edge8" class="edge"><title>example.domain.model.kit.specification.Specification&#45;&gt;example.domain.model.kit.specification.DateOfSeed</title>
<path fill="none" stroke="black" d="M76,-337.845C76,-329.34 76,-319.008 76,-309.496"/>
<polygon fill="black" stroke="black" points="79.5001,-309.248 76,-299.248 72.5001,-309.248 79.5001,-309.248"/>
</g>
<!-- example.domain.type.Covered -->
<g id="node13" class="node"><title>example.domain.type.Covered</title>
<polygon fill="#eedd82" stroke="black" points="523,-299 443,-299 443,-261 523,-261 523,-299"/>
<text text-anchor="middle" x="483" y="-283.8" font-family="Times New Roman,serif" font-size="14.00">カバー有無</text>
<text text-anchor="middle" x="483" y="-268.8" font-family="Times New Roman,serif" font-size="14.00">Covered</text>
</g>
<!-- example.domain.model.kit.specification.Specification&#45;&gt;example.domain.type.Covered -->
<g id="edge9" class="edge"><title>example.domain.model.kit.specification.Specification&#45;&gt;example.domain.type.Covered</title>
<path fill="none" stroke="black" d="M122.722,-356.608C206.782,-357.048 379.809,-354.784 434,-330 445.339,-324.814 455.528,-315.796 463.64,-306.899"/>
<polygon fill="black" stroke="black" points="466.374,-309.086 470.21,-299.21 461.053,-304.539 466.374,-309.086"/>
</g>
<!-- example.domain.type.Type -->
<g id="node14" class="node"><title>example.domain.type.Type</title>
<polygon fill="#eedd82" stroke="black" points="425,-299 371,-299 371,-261 425,-261 425,-299"/>
<text text-anchor="middle" x="398" y="-283.8" font-family="Times New Roman,serif" font-size="14.00">素材</text>
<text text-anchor="middle" x="398" y="-268.8" font-family="Times New Roman,serif" font-size="14.00">Type</text>
</g>
<!-- example.domain.model.kit.specification.Specification&#45;&gt;example.domain.type.Type -->
<g id="edge10" class="edge"><title>example.domain.model.kit.specification.Specification&#45;&gt;example.domain.type.Type</title>
<path fill="none" stroke="black" d="M122.506,-356.093C192.08,-355.507 319.33,-351.419 359,-330 368.615,-324.809 376.691,-316.141 382.955,-307.528"/>
<polygon fill="black" stroke="black" points="385.965,-309.323 388.605,-299.062 380.142,-305.437 385.965,-309.323"/>
</g>
</g>
</svg>
