<svg width="642px" height="455px"
 viewBox="0.00 0.00 642.00 455.00" xmlns="http://www.w3.org/2000/svg" xmlns:xlink="http://www.w3.org/1999/xlink"><g id="graph0" class="graph" transform=" rotate(0) translate(4 428)">
<title>ユースケース複合図</title>
<polygon fill="white" stroke="none" points="-4,27 -4,-428 638,-428 638,27 -4,27"/>
<text text-anchor="middle" x="317" y="15.2" font-family="Times New Roman,serif" font-size="14.00">ユースケース複合図</text>
<!-- example.application.service.StarterKitRegisterService.register(example.domain.model.kit.StarterKit) -->
<g id="node1" class="node"><title>example.application.service.StarterKitRegisterService.register(example.domain.model.kit.StarterKit)</title>
<g id="a_node1"><a xlink:title="StarterKitRegisterService.register(StarterKit)">
<ellipse fill="greenyellow" stroke="black" cx="297.845" cy="-281.565" rx="118.079" ry="18"/>
<text text-anchor="middle" x="297.845" y="-277.865" font-family="Times New Roman,serif" font-size="14.00">ハーブ栽培キットを登録する</text>
</a>
</g>
</g>
<!-- example.domain.model.kit.StarterKit -->
<g id="node2" class="node"><title>example.domain.model.kit.StarterKit</title>
<g id="a_node2"><a xlink:title="StarterKit">
<polygon fill="none" stroke="black" points="360.684,-252.479 241.684,-252.479 241.684,-216.479 360.684,-216.479 360.684,-252.479"/>
<text text-anchor="middle" x="301.184" y="-230.779" font-family="Times New Roman,serif" font-size="14.00">ハーブ栽培キット</text>
</a>
</g>
</g>
<!-- example.application.service.StarterKitRegisterService.register(example.domain.model.kit.StarterKit)&#45;&gt;example.domain.model.kit.StarterKit -->
<g id="edge1" class="edge"><title>example.application.service.StarterKitRegisterService.register(example.domain.model.kit.StarterKit)&#45;&gt;example.domain.model.kit.StarterKit</title>
<path fill="none" stroke="black" stroke-dasharray="5,2" d="M299.127,-263.495C299.142,-263.274 299.158,-263.053 299.174,-262.832"/>
<polygon fill="black" stroke="black" points="299.89,-252.734 303.671,-263.027 299.536,-257.722 299.182,-262.709 299.182,-262.709 299.182,-262.709 299.536,-257.722 294.694,-262.391 299.89,-252.734 299.89,-252.734"/>
</g>
<!-- example.presentation.api.kit.StarterKitController -->
<g id="node3" class="node"><title>example.presentation.api.kit.StarterKitController</title>
<g id="a_node3"><a xlink:title="StarterKitController">
<polygon fill="lightgray" stroke="black" points="600.716,-335.001 455.716,-335.001 455.716,-299.001 600.716,-299.001 600.716,-335.001"/>
<text text-anchor="middle" x="528.216" y="-313.301" font-family="Times New Roman,serif" font-size="14.00">API ハーブ栽培キット</text>
</a>
</g>
</g>
<!-- example.presentation.api.kit.StarterKitController&#45;&gt;example.application.service.StarterKitRegisterService.register(example.domain.model.kit.StarterKit) -->
<g id="edge2" class="edge"><title>example.presentation.api.kit.StarterKitController&#45;&gt;example.application.service.StarterKitRegisterService.register(example.domain.model.kit.StarterKit)</title>
<path fill="none" stroke="black" stroke-dasharray="1,5" d="M455.641,-305.838C435.261,-302.703 412.809,-299.249 391.393,-295.955"/>
<polygon fill="black" stroke="black" points="381.308,-294.403 391.876,-291.476 386.25,-295.164 391.191,-295.924 391.191,-295.924 391.191,-295.924 386.25,-295.164 390.507,-300.371 381.308,-294.403 381.308,-294.403"/>
</g>
<!-- example.application.service.StarterKitService.listAll() -->
<g id="node5" class="node"><title>example.application.service.StarterKitService.listAll()</title>
<g id="a_node5"><a xlink:title="StarterKitService.listAll()">
<ellipse fill="greenyellow" stroke="black" cx="515.907" cy="-361.505" rx="118.079" ry="18"/>
<text text-anchor="middle" x="515.907" y="-357.805" font-family="Times New Roman,serif" font-size="14.00">ハーブ栽培キットを一覧する</text>
</a>
</g>
</g>
<!-- example.presentation.api.kit.StarterKitController&#45;&gt;example.application.service.StarterKitService.listAll() -->
<g id="edge5" class="edge"><title>example.presentation.api.kit.StarterKitController&#45;&gt;example.application.service.StarterKitService.listAll()</title>
<path fill="none" stroke="black" stroke-dasharray="1,5" d="M523.209,-335.103C523.186,-335.187 523.163,-335.271 523.139,-335.356"/>
<polygon fill="black" stroke="black" points="520.949,-343.275 519.278,-332.437 522.282,-338.456 523.615,-333.637 523.615,-333.637 523.615,-333.637 522.282,-338.456 527.952,-334.837 520.949,-343.275 520.949,-343.275"/>
</g>
<!-- example.presentation.web.kit.StarterKitController -->
<g id="node4" class="node"><title>example.presentation.web.kit.StarterKitController</title>
<g id="a_node4"><a xlink:title="StarterKitController">
<polygon fill="lightgray" stroke="black" points="361.209,-343.569 191.209,-343.569 191.209,-307.569 361.209,-307.569 361.209,-343.569"/>
<text text-anchor="middle" x="276.209" y="-321.869" font-family="Times New Roman,serif" font-size="14.00">ハーブ栽培キット管理画面</text>
</a>
</g>
</g>
<!-- example.presentation.web.kit.StarterKitController&#45;&gt;example.application.service.StarterKitRegisterService.register(example.domain.model.kit.StarterKit) -->
<g id="edge3" class="edge"><title>example.presentation.web.kit.StarterKitController&#45;&gt;example.application.service.StarterKitRegisterService.register(example.domain.model.kit.StarterKit)</title>
<path fill="none" stroke="black" stroke-dasharray="1,5" d="M285.134,-307.417C285.213,-307.257 285.292,-307.097 285.371,-306.937"/>
<polygon fill="black" stroke="black" points="288.941,-299.675 288.567,-310.635 286.735,-304.162 284.528,-308.649 284.528,-308.649 284.528,-308.649 286.735,-304.162 280.49,-306.664 288.941,-299.675 288.941,-299.675"/>
</g>
<!-- example.domain.model.kit.StarterKitList -->
<g id="node6" class="node"><title>example.domain.model.kit.StarterKitList</title>
<g id="a_node6"><a xlink:title="StarterKitList">
<polygon fill="none" stroke="black" points="555.771,-423.55 449.771,-423.55 449.771,-387.55 555.771,-387.55 555.771,-423.55"/>
<text text-anchor="middle" x="502.771" y="-401.85" font-family="Times New Roman,serif" font-size="14.00">栽培キット一覧</text>
</a>
</g>
</g>
<!-- example.domain.model.kit.StarterKitList&#45;&gt;example.application.service.StarterKitService.listAll() -->
<g id="edge4" class="edge"><title>example.domain.model.kit.StarterKitList&#45;&gt;example.application.service.StarterKitService.listAll()</title>
<path fill="none" stroke="black" stroke-width="2" d="M508.19,-387.381C508.953,-384.821 509.738,-382.191 510.501,-379.632"/>
</g>
<!-- example.application.service.VarietyRegisterService.register(example.domain.model.kit.row.Variety) -->
<g id="node7" class="node"><title>example.application.service.VarietyRegisterService.register(example.domain.model.kit.row.Variety)</title>
<g id="a_node7"><a xlink:title="VarietyRegisterService.register(Variety)">
<ellipse fill="greenyellow" stroke="black" cx="225.081" cy="-63.3744" rx="93.6835" ry="18"/>
<text text-anchor="middle" x="225.081" y="-59.6744" font-family="Times New Roman,serif" font-size="14.00">ハーブ品種を登録する</text>
</a>
</g>
</g>
<!-- example.domain.model.kit.row.Variety -->
<g id="node8" class="node"><title>example.domain.model.kit.row.Variety</title>
<g id="a_node8"><a xlink:title="Variety">
<polygon fill="none" stroke="black" points="249.757,-35.949 156.757,-35.949 156.757,0.0510335 249.757,0.0510335 249.757,-35.949"/>
<text text-anchor="middle" x="203.257" y="-14.249" font-family="Times New Roman,serif" font-size="14.00">ハーブの品種</text>
</a>
</g>
</g>
<!-- example.application.service.VarietyRegisterService.register(example.domain.model.kit.row.Variety)&#45;&gt;example.domain.model.kit.row.Variety -->
<g id="edge6" class="edge"><title>example.application.service.VarietyRegisterService.register(example.domain.model.kit.row.Variety)&#45;&gt;example.domain.model.kit.row.Variety</title>
<path fill="none" stroke="black" stroke-dasharray="5,2" d="M216.456,-45.4211C216.41,-45.325 216.363,-45.2287 216.317,-45.1324"/>
<polygon fill="black" stroke="black" points="211.963,-36.0696 220.35,-43.1346 214.128,-40.5764 216.293,-45.0833 216.293,-45.0833 216.293,-45.0833 214.128,-40.5764 212.237,-47.032 211.963,-36.0696 211.963,-36.0696"/>
</g>
<!-- example.presentation.api.kit.VarietyController -->
<g id="node9" class="node"><title>example.presentation.api.kit.VarietyController</title>
<g id="a_node9"><a xlink:title="VarietyController">
<polygon fill="lightgray" stroke="black" points="476.552,-117.98 369.552,-117.98 369.552,-81.9797 476.552,-81.9797 476.552,-117.98"/>
<text text-anchor="middle" x="423.052" y="-96.2797" font-family="Times New Roman,serif" font-size="14.00">API ハーブ品種</text>
</a>
</g>
</g>
<!-- example.presentation.api.kit.VarietyController&#45;&gt;example.application.service.VarietyRegisterService.register(example.domain.model.kit.row.Variety) -->
<g id="edge7" class="edge"><title>example.presentation.api.kit.VarietyController&#45;&gt;example.application.service.VarietyRegisterService.register(example.domain.model.kit.row.Variety)</title>
<path fill="none" stroke="black" stroke-dasharray="1,5" d="M369.478,-90.0738C349.022,-86.2913 325.262,-81.898 302.994,-77.7806"/>
<polygon fill="black" stroke="black" points="292.885,-75.9114 303.536,-73.3047 297.801,-76.8206 302.718,-77.7297 302.718,-77.7297 302.718,-77.7297 297.801,-76.8206 301.9,-82.1547 292.885,-75.9114 292.885,-75.9114"/>
</g>
<!-- example.application.service.VarietyService.listAll() -->
<g id="node11" class="node"><title>example.application.service.VarietyService.listAll()</title>
<g id="a_node11"><a xlink:title="VarietyService.listAll()">
<ellipse fill="greenyellow" stroke="black" cx="430.506" cy="-143.987" rx="93.6835" ry="18"/>
<text text-anchor="middle" x="430.506" y="-140.287" font-family="Times New Roman,serif" font-size="14.00">ハーブ品種を一覧する</text>
</a>
</g>
</g>
<!-- example.presentation.api.kit.VarietyController&#45;&gt;example.application.service.VarietyService.listAll() -->
<g id="edge10" class="edge"><title>example.presentation.api.kit.VarietyController&#45;&gt;example.application.service.VarietyService.listAll()</title>
<path fill="none" stroke="black" stroke-dasharray="1,5" d="M426.127,-118.133C426.154,-118.293 426.181,-118.453 426.208,-118.614"/>
<polygon fill="black" stroke="black" points="427.438,-125.875 421.332,-116.767 426.603,-120.946 425.768,-116.016 425.768,-116.016 425.768,-116.016 426.603,-120.946 430.205,-115.264 427.438,-125.875 427.438,-125.875"/>
</g>
<!-- example.presentation.web.kit.VarietyController -->
<g id="node10" class="node"><title>example.presentation.web.kit.VarietyController</title>
<g id="a_node10"><a xlink:title="VarietyController">
<polygon fill="lightgray" stroke="black" points="143.719,-142.298 -0.281204,-142.298 -0.281204,-106.298 143.719,-106.298 143.719,-142.298"/>
<text text-anchor="middle" x="71.7188" y="-120.598" font-family="Times New Roman,serif" font-size="14.00">ハーブ品種の管理画面</text>
</a>
</g>
</g>
<!-- example.presentation.web.kit.VarietyController&#45;&gt;example.application.service.VarietyRegisterService.register(example.domain.model.kit.row.Variety) -->
<g id="edge8" class="edge"><title>example.presentation.web.kit.VarietyController&#45;&gt;example.application.service.VarietyRegisterService.register(example.domain.model.kit.row.Variety)</title>
<path fill="none" stroke="black" stroke-dasharray="1,5" d="M117.317,-106.184C135.363,-99.0153 156.172,-90.7486 174.664,-83.4026"/>
<polygon fill="black" stroke="black" points="184.096,-79.6557 176.464,-87.5298 179.449,-81.5017 174.803,-83.3477 174.803,-83.3477 174.803,-83.3477 179.449,-81.5017 173.141,-79.1656 184.096,-79.6557 184.096,-79.6557"/>
</g>
<!-- example.domain.model.kit.row.Varieties -->
<g id="node12" class="node"><title>example.domain.model.kit.row.Varieties</title>
<g id="a_node12"><a xlink:title="Varieties">
<polygon fill="none" stroke="black" points="535.184,-208.684 429.184,-208.684 429.184,-172.684 535.184,-172.684 535.184,-208.684"/>
<text text-anchor="middle" x="482.184" y="-186.984" font-family="Times New Roman,serif" font-size="14.00">ハーブ品種一覧</text>
</a>
</g>
</g>
<!-- example.domain.model.kit.row.Varieties&#45;&gt;example.application.service.VarietyService.listAll() -->
<g id="edge9" class="edge"><title>example.domain.model.kit.row.Varieties&#45;&gt;example.application.service.VarietyService.listAll()</title>
<path fill="none" stroke="black" stroke-width="2" d="M462.056,-172.496C458.202,-169.014 454.169,-165.369 450.325,-161.896"/>
</g>
</g>
</svg>
